<?xml version="1.0" encoding="UTF-8"?>
<svg xmlns="http://www.w3.org/2000/svg" version="1.1" viewBox="0 0 1024 1024">
  <!-- Generator: Adobe Illustrator 29.5.1, SVG Export Plug-In . SVG Version: 2.1.0 Build 141)  -->
  <defs>
    <style>
      .st0 {
        fill: #2f261f;
      }

      .st1 {
        fill: #32b5d4;
      }

      .st2 {
        fill: #f4bd3b;
      }

      .st3 {
        fill: #e83b11;
      }

      .st4 {
        fill: #e92205;
      }

      .st5 {
        fill: #77c3b6;
      }

      .st6 {
        fill: #f7d288;
      }

      .st7 {
        fill: #f8e598;
      }

      .st8 {
        fill: #f8d490;
      }

      .st9 {
        fill: #007e8f;
      }

      .st10 {
        display: none;
      }
    </style>
  </defs>
  <g id="Layer_1" class="st10">
    <g>
      <path class="st1" d="M0,550V0h1024v550h-251c18.3-39.1,37.9-82.5,47.5-125,.6-2.8,2.6-11.9,2.1-14-1.4-5.3-10.5-9.7-15.8-7.7-46.9,15.9-99.8,21.9-146.5,36.5-13.5,4.2-14.1,12.7-23.7,21.3-18.6,16.4-47.7,19.9-71.5,24l-74-139c6.1-1.1,9.7-1.5,10.1-8.5,1.1-20.6-27.3-10.2-39.7-8.6-36.2,4.4-72.4,8.8-108.6,13.4-11.1,2.3-9.1,18.6,1,20.6,3.3.6,4.7-.6,7.3-.8.4,7.8,1.3,15.7,1.8,23.5,2.6,39.3,4.4,80.6,7.2,119.5v1c-13.1.9-26.4,2.3-39.5,3-12.1.7-24.4.8-36.5.9l-35.3-245.2c-.8-4-1.3-10.5-7-9.6s-5.1,8.7-4.7,13.3c2.4,29,9,60.9,12.9,90.1s5.9,50,9.1,74.9c3.3,25.4,8.6,51.1,9.6,76.6l-2.1.9-61,1c-5.6.6-11.9,4-11.5,10.4s8.9,23.2,11,27.6H0ZM963,143c-6.1-11.8-26.8-13.3-39-14,7.8-31.4-31.5-44.9-55-32-2.7-58.8-95-66.3-109-11-27.2-11.5-66.6-.9-65,34-21.4-6.1-49.6-5.1-61.1,16.9-10.5-5.5-43.5,5.4-29.9,19.6,10.5,10.9,53.8,7.6,69.6,7.5,62-.5,123.5.2,185.5,1,1.3,0,2.7,0,4,0s1.3,0,2,0c6.7,0,13.3,0,20,0l1.2.7.8-.7c1.7,0,3.3,0,5,0,1.3,1.4,2.8,1.4,4,0,2.7,0,5.3,0,8,0h1c9.2,0,18.4.2,27.5,0s3.9.5,5.5-1c.7,0,1.3,0,2,0,3.7,0,10.1-1.8,13-4,.3,0,.7,0,1,0,2.8-.5,4-2.4,6-4s.7-.7,1-1,2.4.6,3-3,0-.7,0-1l.8-.7c1.3-3.6-.6-5-1.8-7.3ZM241,91c-37,2-71.1,21.9-94,50.5-4.2,5.3-15.1,19.6-15.1,26s8.5,12.7,14.6,7.5c32-57,98.4-80.6,157.2-47.2s17.9,14,22.4,15.6c8.8,3.3,14.6-6.7,10.7-14.7s-31-22.8-39.4-26.6c-15.1-6.8-27.7-10.2-44.4-11.1-.1-1.5-2.9-1.5-3,0-1.3,0-2.7,0-4,0l-.5-1-.5,1c-1,0-2,0-3,0l-.5-1-.5,1ZM244.8,151.3c-20.6.6-42.9,10.4-58.3,23.7s-36.2,34.7-14.7,38.8c8,1.5,13.1-10.7,17.7-15.8,26-29.1,64.1-35.7,98.2-16.2s14.6,11.7,19.8,11.3c5.9-.5,9.1-8.4,6.7-13.8s-13.6-11.1-16.9-13.1c-15.2-9-34.7-15.5-52.5-14.9ZM239.8,208.3c-12.8,1.5-24.1,10.2-31.8,20.2-3.5,4.6-6.2,8.6-2,14,9.1,11.7,19.5-6,26.1-10.9s13.5-6.7,22-5.1,19.1,10.2,23.5,10.5c6.7.5,11.9-9.3,6.4-15.5-9.8-11.1-30.2-14.8-44.2-13.2Z"/>
      <path class="st9" d="M215,550c7.3,15.3,17.3,29.5,26,44-30.3,8.6-49.1,22.5-83.5,21s-35.1-6.8-53-5c-3.6.4-15.9,3.5-11.6,8.6s17.5.2,22.5.5c17.3,1.3,33.5,9.8,51.1,10.9,43.7,2.9,78.3-24.6,120.6-16.6,22,4.2,39,15.5,63.4,16.6,37.7,1.6,65.5-20.9,103.1-18.1,23.2,1.7,45.8,16.3,69.9,18.1,45.8,3.3,72-30.5,122.1-15.1,24.2,7.4,35.4,15,63,13.1,20.5-1.4,38.4-13.5,58.9-15.1,35.8-2.7,61.8,20.3,97.5,10.5,4.3-1.2,18.2-5.2,10.3-10.3-11.2-.2-22.3,1.8-33.5.5-14.8-1.7-31.2-11-45.8-15.2-18.9-5.4-35.9-6-55-.5l32-48h251v474H0v-474h215ZM486,655c-7.1-1.2-13.9,2.4-20.5,3-26.2,2.5-43.6-12.6-68-11-14.9,1-28.9,9.1-43.2,10.8-23.8,2.7-42.6-11.5-65.8-9.8s-23.4,4.8-23.5,9.5,15.2,0,18.7-.4c21.4-2,42,13.9,62.8,13.8,16.9-.1,31.8-10.6,48.1-11.9,28-2.2,50,15,77.1,6.1,2.1-.7,12.4-4.6,13.5-5.5s1-2.9,1-4.5ZM702,672c-.3,2,1.2,2.9,2.7,3.8,25.1,13.9,51.1-4.1,76.3.7s21.1,7.8,31.4,8.6c17.8,1.4,31.2-9.2,50-8s12.5,4,12.6-.5-2.8-2.9-4.4-3.7c-19.3-9.8-38.9,2.7-59.2,1.2-13.1-1-27.1-8.6-40.1-8.9s-29.7,7.3-43.9,7.9-17-3.7-25.5-1ZM126,890c2.7.7,4.7.6,7,1s2.3,1.8,4,1c247.7,2.4,495.7.3,743.5,1,6.8-.8,13.9-1.9,20.5-4,77.4-25.4,71.2-141.7-12.8-155.7-162.5-2.2-325.6-1.4-488.2-1.3-2,0-4,0-6,0s-1.3,0-2,0c-3.3,0-6.7,0-10,0s-2,0-3,0c-5.3,0-10.7,0-16,0s-2,0-3,0c-3.3,0-6.7,0-10,0s-2.7,0-4,0c-65.4,0-136.3-3.5-201,0-95.9,5.1-104.4,134.8-19,158Z"/>
      <path class="st0" d="M215,550c-2.1-4.4-10.7-24.1-11-27.6-.4-6.4,5.8-9.8,11.5-10.4l61-1,2.1-.9c-1-25.5-6.2-51.1-9.6-76.6-3.3-24.8-5.9-50-9.1-74.9s-10.5-61.2-12.9-90.1-1.3-12.4,4.7-13.3,6.2,5.7,7,9.6l35.3,245.2c12.1-.1,24.4-.2,36.5-.9,13.1-.8,26.3-2.2,39.5-3,25.3-1.7,50.7-3.9,76-6,4-.3,13.7.3,15.3,0s.6-1.8,1.3-2c4.3-1,11.4.4,14.7,0s.5-1.9,1.3-2c3.5-.8,11.2-.5,15.3-1,10.3-1.2,20.7-2.6,31-4s26.8-3.7,40-6c23.7-4.1,52.9-7.6,71.5-24s10.3-17.1,23.7-21.3c46.7-14.5,99.6-20.6,146.5-36.5,5.3-2,14.4,2.4,15.8,7.7s-1.4,11.2-2.1,14c-9.6,42.5-29.2,85.9-47.5,125l-32,48c-10,2.9-19,8.3-30,10l17.4-21.1c20.7-28.2,38.6-58.9,50.6-91.9-42.2,9.3-84.3,19.5-126.8,27.7-135,26-272.6,38.8-410.2,41.3l16,27c-5.7.9-11.4,1.4-17,3-8.7-14.5-18.7-28.7-26-44ZM802,425c-26.5,5.4-52.8,12.8-79.2,19.3-18.6,4.6-37.4,8.6-56.1,12.9-21.2,26.7-45,36-77.6,42.4-103.9,20.5-222.7,27.3-328.6,30.4-10.6.3-25.2-1.4-35.1,0s-1.8-.5-1.5,1.5,5.8,14.2,7.1,15.9,1,1.3,2.4,1.6c5.1.9,17.1.2,23,0,126.7-2.5,258.8-16.9,383.6-40.4,48.6-9.1,96.9-19.9,144.8-32.2,2.8-1.6,8.7-21.4,10.1-25.9,2.6-8.4,5-16.9,7-25.5Z"/>
      <path class="st8" d="M859,165c-62-.8-123.5-1.5-185.5-1-15.8.1-59.1,3.4-69.6-7.5-13.6-14.2,19.4-25.1,29.9-19.6,11.5-22,39.7-23,61.1-16.9-1.6-34.9,37.8-45.5,65-34,14-55.3,106.3-47.8,109,11,23.5-12.9,62.8.6,55,32,12.2.7,32.9,2.2,39,14,.9,2.6,1.2,5.2,1,8s0,.7,0,1c-1.7.7-3.5.7-3,3-.3.3-.6.7-1,1-2.1,1.1-6.7,1.4-6,4-.3,0-.7,0-1,0-2.2.4-11.7,1.1-12.9,2.1s0,1.4,0,1.9c-.7,0-1.3,0-2,0-22-.6-45.2-.3-67.5,0-1.7,0-4.4-.6-5.5,1-.7,0-1.3,0-2,0-.4-1.6-3.7-1.5-4,0Z"/>
      <path class="st6" d="M491,346l74,139c-13.2,2.3-26.7,4.2-40,6-1-1.6-3.8-1.1-5.5-1-6.8.6-15.3,1.9-22.1,3s-4-1.1-3.4,2c-4.1.5-11.8.2-15.3,1s-.6,2-1.3,2c-3.3.4-10.4-1-14.7,0s-.6,1.9-1.3,2c-1.6.3-11.3-.4-15.3,0-1.9-1.7-6-1.2-8.5-1-9.3.7-18.7,2.3-28,3-13.2,1-26.5.4-39.5,3-2.8-38.9-4.6-80.2-7.2-119.5s-1.4-15.7-1.8-23.5c3-.2,5.2-.7,8-1,1.3,1.7,4.6,1.1,6.5,1,5.8-.5,11.8-2.3,17.5-3,30.1-3.8,60.3-7.1,90.5-11,1.9-.2,4.1,1.3,3.5-2,1.2-.2,2.8.2,4,0ZM439,377c0,1,0,2,0,3-1.7,1.6-1.2,5.3-1,7.5,1.2,14.8,3.4,36.3,6.2,50.7.7,3.7,1.4,8.8,5.7,9.8s2,0,3,0c5.9.4,13.4-.3,19.4-1.1s7.4-.2,6.6-2.9c.3,0,.7,0,1,0,1.5,1.4,3.6,1.2,5.5,1,4.7-.4,27-3.1,29.3-5.3,5.2-4.9-1.3-12.9-3.8-18.2s-1.3-3.9-2-1.5c-6.8-13.2-15.4-28.2-23-41,1.4-.4-.9-4.6-1.3-5.2-2.9-5.1-4.8-8.7-11.2-8.9s-27.4,3.2-31.5,4.6-5.8,4.5-3,7.5ZM409,403c5-6.5,9-10.6,3.8-19.3-4.4-7.4-11.5-7.2-18.8-5.7s-.9-1-3.5,1c-13.6,10.7-1,32.6,16.5,26.5,4-1.4,1.9-2.4,2-2.5Z"/>
      <path class="st2" d="M241,91c.3,0,.7,0,1,0,1,0,2,0,3,0s.7,0,1,0c1.3,0,2.7,0,4,0s2,0,3,0c16.7,1,29.2,4.3,44.4,11.1,8.4,3.8,35.8,19.1,39.4,26.6s-1.9,18-10.7,14.7-16.5-12.3-22.4-15.6c-58.8-33.4-125.1-9.8-157.2,47.2-6.1,5.1-14.6,0-14.6-7.5s10.9-20.7,15.1-26c22.9-28.6,57-48.5,94-50.5Z"/>
      <path class="st0" d="M491,346c-1.2.2-2.8-.2-4,0-31.2,4.6-62.7,8.1-94,12-8,1-16,2-24,3s-5,.8-8,1-3.9,1.4-7.3.8c-10.1-1.9-12.1-18.3-1-20.6,36.2-4.6,72.4-8.9,108.6-13.4,12.4-1.5,40.8-11.9,39.7,8.6-.4,7-4,7.4-10.1,8.5Z"/>
      <path class="st2" d="M244.8,151.3c17.8-.5,37.3,5.9,52.5,14.9s15.7,10.2,16.9,13.1c2.4,5.4-.8,13.3-6.7,13.8-5.3.5-14.6-8.3-19.8-11.3-34.1-19.6-72.2-12.9-98.2,16.2-4.6,5.2-9.7,17.4-17.7,15.8-21.5-4.2,8-33,14.7-38.8,15.4-13.3,37.8-23.1,58.3-23.7Z"/>
      <path class="st2" d="M239.8,208.3c14-1.6,34.5,2.1,44.2,13.2s.3,16-6.4,15.5-16.6-9.3-23.5-10.5-15.1,0-22,5.1-17,22.6-26.1,10.9-1.5-9.4,2-14c7.7-10,18.9-18.8,31.8-20.2Z"/>
      <path class="st7" d="M446,500c-25.3,2.1-50.7,4.3-76,6v-1c13-2.6,26.3-2,39.5-3,9.3-.7,18.7-2.3,28-3s6.6-.7,8.5,1Z"/>
      <path class="st6" d="M938,164c-1.6,1.5-3.6,1-5.5,1-9.2.2-18.4,0-27.5,0s-.7,0-1,0c-2.7,0-5.3,0-8,0s-2.7,0-4,0-3.3,0-5,0-1.3,0-2,0c-6.7,0-13.3,0-20,0,1-1.7,3.8-1,5.5-1,22.4-.2,45.6-.6,67.5,0Z"/>
      <path class="st6" d="M953,160c-2.9,2.2-9.3,4.1-13,4,0-.6-.2-1.7,0-1.9,1.2-.9,10.8-1.7,12.9-2.1Z"/>
      <path class="st6" d="M964,151c.2-2.8-.1-5.4-1-8,1.2,2.4,3.1,3.7,1.8,7.3l-.8.7Z"/>
      <path class="st6" d="M960,156c-2,1.6-3.2,3.5-6,4-.7-2.6,3.9-2.9,6-4Z"/>
      <path class="st5" d="M896,165c-1.2,1.4-2.7,1.4-4,0,1.3,0,2.7,0,4,0Z"/>
      <path class="st6" d="M863,165c-1.3,0-2.7,0-4,0,.3-1.5,3.6-1.6,4,0Z"/>
      <path class="st6" d="M964,152c-.6,3.6-2.6,2.7-3,3-.5-2.3,1.3-2.3,3-3Z"/>
      <path class="st5" d="M253,91c-1,0-2,0-3,0,.1-1.5,2.9-1.5,3,0Z"/>
      <path class="st5" d="M887,165l-.8.7-1.2-.7c.7,0,1.3,0,2,0Z"/>
      <path class="st5" d="M904,165c.3,0,.7,0,1,0h-1Z"/>
      <path class="st5" d="M246,91c-.3,0-.7,0-1,0l.5-1,.5,1Z"/>
      <path class="st5" d="M242,91c-.3,0-.7,0-1,0l.5-1,.5,1Z"/>
      <path class="st8" d="M145,732h201c1.3,0,2.7,0,4,0,2,1.7,7.8,1.7,10,0,1,0,2,0,3,0,4.1,1.7,11.7,1.7,16,0,1,0,2,0,3,0,2,1.7,7.8,1.7,10,0,.7,0,1.3,0,2,0,1,1.6,5.1,1.6,6,0,162.7-.1,325.7-1,488.2,1.3,83.9,14,90.1,130.4,12.8,155.7-.8-1.8-3.3-.4-4.7-.2-6.9,1.3-13.8,2.7-20.8,3.2H137c-1.7.7-3.2-.9-4-1l1-1c-2.6.5-6.1-2.4-8,0-85.4-23.2-76.9-152.9,19-158ZM130,844c0,.1-1.3.8-.9,2.2,1,3.5,9,6.4,12.4,6.8,15,1.7,49.7,1.4,65,0s13.6-3.6,14.5-11.5,1-32,0-41-1.2-3.3-3-5.5-1.9-1.9-2-2c-1-.7-1.8-1.9-3-2.5l-53-.6,1.3-2.2c9-2.1,18.1-6.6,26.7-9.3,6.6-2,14.3,2.3,15.9-6.1s-.7-2.9-1.9-3.4c-7.8-3.7-4.8-.6-10.4,2.1-13.2,6.1-36.5,9.7-47.8,16.2-2.3,1.3-2.6,3.6-3.7,4.3-3.2,1.9-9.1,0-10,7-1.6,12.5.1,32.1,0,45.6ZM242,782c.2,1.9,1.3,2.6,2,4-1.7,16.1,2.7,37.7-1,53s-1,2.6-1,4h40s1-19,1-19c-2.2-.7-2.3,1.5-3,2s-1.5.6-2,1c-1.3,1.2-3.1,1.5-3,4-.4.3-.6.7-1,1s-1.2,0-1.9.6c-1.1.8-1.2,2.8-2.7,3.3s-6.5.2-7.8-.7-.5-5.9-.6-7.7,1-4-2-3.4v-4c3.5.4,1.4-1.1,1.3-2.8-.2-4.3.4-9.4-1.3-13.2,0-1.3,0-2.7,0-4l.8-.7c1-4.3.3-8.8.2-12.3s0-.7,0-1c1.9-.8,2.7-1.9,3-4s.4-2.1-.6-2h-20.4c0,.7,0,1.4,0,2ZM278.7,780.2c-1.8.5-3.6,3.6-3.7,5.4-.3,4.1,3.8,5.5,4,8s-3.9,6-3.9,7,2.1,2.5,2.3,2.5c2.2,0,9.4-12.5,9.6-15.5.2-4.8-3.4-8.8-8.4-7.3ZM291,782c0,.6,2.7,6.6,3,7-1.7.4-.9,3.1-1,4.5-.5,11.7-.2,24.2,0,36,0,1.7-.6,4.4,1,5.5v2c-1.1.1-1.6,2.1-2,3s-2.2,2.1-.5,3h19.5c.7-2.1-1.7-2.4-2-3-2.5-4.8-3.3-48.2-1.3-52.7s2.5-2.4,3-3.9-.8-1.2-.8-1.3c0-.4,1.4-1.8,1-2h-19.4c-1-.1-.7,1.3-.6,2ZM427,782c.1,1.2.8,2.1,1,3s0,.7,0,1c2.6,16.5.2,34.2,1,51-.5,1.5-.9,2.8-2,4s-3.4-.7-2,2.5,2.2,1.4,3.4,1.6c11.5,1.3,25.3-1.1,37.1,0,2,.3,1.3-1.9,1.4-2.1s1.4.3,1.8-.2.8-14.8-.8-16.8c0-.7,0-1.3,0-2-.3-5.1-4.6-.5-5,3-.6.6-1.3,1.4-2,2s-3.2,1.4-1,2c-1.2,2.1-2.9,3.7-5,5h-10c1-16.5-1.8-33.8,1-50,.1-.6-.2-1.5,0-2s.7-1.3,1-2,1.3-1.8,1-2h-20.4c-1-.1-.6,1.3-.6,2ZM473,782c.1,1,.9,1.7,1,2,.1.6,0,1.4,0,2,2.1,14,.8,29.2,1,43.5s-.6,4.4,1,5.5c-.2,1.3-.9,1.6-1,2s-1.6.4,0,1v1c-.3.3-.7.6-1,1-.4.5-2.4,2.7-2,3h21c.5-1.7-.7-2.8-1-4-2.9-11.5-.8-33.5-1-46.5,0-1.7.6-4.4-1-5.5.4-.6.6-1.4,1-2s1.7-.4,2-3,.4-2.1-.6-2h-19.4c0,.7,0,1.4,0,2ZM499,782c0,.3-.9.4-.8,1.2s.7.5.8.8c.2.7.8,1.3,1,2,2.8,10.8.8,31.3,1,43.5,0,1.7-.6,4.4,1,5.5-.8,4-3.2,4.6-4,8h15c.9-2.1-1.8-3.9-2-5-1.2-6.7-.4-24.9,0-32.5s-.7-3.3,2-1.5c8.9,12.9,17.1,26.2,26,39,3.3-.1,6.7.2,10,0s1.3,0,2,0c1.7-2.2-.9-48,0-56s.8-2.4,1-3,2.4-.8.5-2h-14.5c-.1,1.2,1.7,1.5,2,2s2,3.8,2,4l-2,32c-8.7-11.5-15.5-24.3-24-36-.3-.7-.7-1.3-1-2s.6-1.8-.6-2.1-14.7-.3-15.3.2,0,1.5-.1,1.8ZM570,782c0,1-2,.1,1,3s.7.7,1,1l-6,25c-3.6,9.9-6.3,19.6-12,28.5-.8,1.2-1.2,2-1,3.5h16c-5.8-7-3.4-11.6,0-19l17-2c1.1.4.9,3,2,3,.3,4.5,3.4,8.3,1.5,13s-3.4,2.3-2.5,5h23c.8-3.6-2.1-3-3.9-5.6-6.9-10.1-14.6-41.6-20.1-55.4s.6-1.9-.6-2.1h-16.4c-.4.3,1,1.7,1,2.1ZM637,782c0,.2-1,.4-.9,1.3s1.4,1.2,1.9,1.7.7.6,1,1l1,51c-.7,1.2-2.4,2.1-3,3s-1.9,2.5-.5,3h20.5c.7-2.2-1.6-2.3-2-3-4-6.7-1.2-16.4-2-24,13.7-3.3,13.6,22.3,21,26s10.9.5,16,1c.5-1.8-.2-2-1-3-1.1-1.5-3.1-2.3-4.5-4.1-5-6.9-6.7-18.1-15.5-21.9,3.1-.5,5.6-2.1,8-4s.7-.7,1-1c6.3-6.1,7.2-16.2,0-22s-.6-.8-1-1c-2.5-2.4-5.7-3.5-9-4,.6-3-1.5-1.9-3.5-2-3.6-.1-26.3-.7-27.4.2s0,1.4-.1,1.8ZM710,782c-1.1,3.5.1,2,2,4s.8.7,1,1l-16,51c-1,.8-1.2,1.1-2,2s-2.4,2.7-2,3h15.4c2.4-3.4-1.3-2.8-1.4-3s-1-2.8-1-3c2.6-2.2,3-12.2,5-13.5s13-.9,14.4-.5.6,1.9.7,2c.7.6.9-1,1-1,.6,0,3.6,8.4,3.8,9.8.4,2.7-.1,3.1-.8,5.2l-3,4h23c1-3.9-1.8-2.7-2-3-2.2-2.9-2.7-6-4-9s-2.1-3.5-3-5c0-.3,0-.7,0-1-1.2-4.1-2.5-9.1-4-13s-.9-.7-1-1c-.2-5.5-2.8-11-5-16s-.7-1.4-1-2c-.5-3.8-1.8-7.4-3-11s.6-2-.6-2c-2.8.6-15-.8-16.3.2s0,1.4-.1,1.8ZM753,782c0,.6-.1,1.5,0,2s.7,1.4,1,2l1,52c-.3.7-.6,1.4-1,2s-2.7.8-2,3c12.3-1.3,32,3.3,42.5-4s14.3-29.8,8.5-43-8.8-12.9-15-13v-1c-10.9-4-23.6-1.2-35-2,0,.7,0,1.3,0,2ZM812,782c.3,2.9,3.4,4,3.9,7.6,1,6.1-.6,14.1,0,20.4,0,1,0,2,0,3-.3,8,1.4,18.5-1.7,25.8s-3.6,1.5-2.3,4.2h21c.3-1.2-.8-2.2-1-3-.4-2.3-.1-8-3-7,0-.7,0-1.3,0-2,3,.6,1.9-1.5,2-3.5.5-13.8-.3-27.7,0-41.5.1-.2,0-.8.4-1.6.7-1.3,2.1,1,.6-2.4s.4-1.5-.1-1.8c-1.3-1-16.7.4-19.9-.2,0,.7,0,1.3,0,2ZM325,785c-1.3.7-1.3,1.3-2,2-2.4,2.4-1.8,2.1-3,5-8.9,21.9,16.1,21.8,24.6,30.9s4.6,11.2,1.4,11.1.1-1.2-1-1c-.1.6.2,1.6,0,2s-.7.7-1,1c-4.9,1.6-8.3.6-13-1-1.6-1.2-1.8-1.6-3-3-.9-1.4-2.8-7.3-3.2-7.8s-1.4,0-1.8-.2c-1.2-.5-2.1-1.6-4-1l-2,20c2.7.9,3.6-1.8,5-2.5,4-1.9,9.4,2.6,13.7,3.2,20.5,3.2,33.9-19.7,16.2-33.2-6.9-5.2-26.3-8.4-21.2-20.3s12.3-4.4,16.7-.2,3.7,7.1,5.4,9.4c4.7,6.1,4.7-14.8,6.1-16.9-3.6-2.1-3.2,1.2-4,2.5-3.1,1.8-6.6-1.1-10-2s-.7-.8-2-1c-6-2-13.1-1.3-18,3ZM365,804c-.1,0-.5-.9-1-1-2,11.6-.8,20.6,6,30s.7.5,1,1-.2,1.4,0,2c.6,0,.9-1,1-1,.8.2,9.8,7.5,13,9,8.4,3.8,13.3,3.1,21.7-.7s3.6-3.2,4.3-4.3c1.8-2.9,3.8-3.8,4-4l5.7-8.8c3.8-13.1,3.1-25.6-5.7-36.2s-3.3-3.4-4-4c-1.5-1.3-3.5-4.3-6-3-17.7-6.6-36,.8-39,20.5-.2.5-.5.6-1,.5ZM843,792c-7.4,9.3-9.6,33.5,0,41s1.4.6,2,1c.3.4.7.7,1,1v1c.4.7,2,4.6,2.2,4.8.7.6,2.4,0,3,.2,1.8.9,2.5,3.3,6.6,3.8s3-.8,3.2-.8c.7,0,1.3,0,2,0-.7,3.7,7.5,1.9,9.1,1.6s11.4-4.3,11.8-4.7.1-1.3.1-1.8v-1c1.5-.8,2.6-2,4-3s1.3.3,1.8-.2.4-3,1.1-4.1,2.1-.9,2.7-2.1c1-2.1,3.4-17.5,3.4-20.2s-3.8-9.7-5-12.3-.6-.9-1-2,.4-2.3-.1-2.9-1.7,0-1.9,0c-1.4-1-2.7-2-4-3s-.6-.7-1-1c-1.1-.7-1.9-1.3-3-2s-1.5-1.4-3-2c-12.4-5.1-26.7-1.4-35,9ZM129,842v-43h-1v43h1Z"/>
      <path class="st5" d="M438,588c.7,0,1.3,0,2,0,27.6-1.1,39.3,9.7,63,17,38.1,11.8,52.1-2.3,85-12,7.2-2.1,15.5-3.5,23-4,3.7,1.7,11.1,1.7,15,0,7,.6,16.5,2.6,23,5,25.1,9.3,31.5,18.8,62,14,11-1.7,20-7.1,30-10,19.1-5.5,36.1-4.9,55,.5,14.5,4.2,31,13.5,45.8,15.2,11.2,1.3,22.3-.8,33.5-.5,7.9,5.1-6,9.1-10.3,10.3-35.7,9.7-61.8-13.2-97.5-10.5-20.5,1.5-38.4,13.7-58.9,15.1-27.6,1.9-38.8-5.6-63-13.1-50.1-15.4-76.3,18.4-122.1,15.1-24.1-1.7-46.7-16.4-69.9-18.1-37.6-2.8-65.4,19.7-103.1,18.1-24.4-1-41.5-12.4-63.4-16.6-42.3-8-76.9,19.4-120.6,16.6-17.5-1.1-33.8-9.6-51.1-10.9-5-.4-20.4,2-22.5-.5-4.3-5,8-8.2,11.6-8.6,17.9-1.8,35.3,4.2,53,5,34.4,1.5,53.2-12.4,83.5-21,5.6-1.6,11.3-2.1,17-3,40.6-6.2,52.2,15.5,86.5,18,30.3,2.3,44-8.4,70.5-16s14.9-4.4,23-5Z"/>
      <path class="st5" d="M486,655c0,1.6.5,3.3-1,4.5s-11.3,4.8-13.5,5.5c-27.1,9-49.1-8.3-77.1-6.1-16.3,1.3-31.2,11.8-48.1,11.9-20.8.1-41.3-15.7-62.8-13.8-3.5.3-18.7,6-18.7.4s19.3-9.2,23.5-9.5c23.1-1.7,41.9,12.5,65.8,9.8,14.3-1.6,28.3-9.8,43.2-10.8,24.4-1.6,41.9,13.5,68,11s13.4-4.2,20.5-3Z"/>
      <path class="st5" d="M702,672c8.5-2.7,16.7,1.3,25.5,1,14.2-.6,29.5-8.2,43.9-7.9s27,8,40.1,8.9c20.3,1.5,39.9-11,59.2-1.2,1.5.8,4.4,1.5,4.4,3.7,0,4.5-9.6.7-12.6.5-18.8-1.2-32.2,9.4-50,8-10.4-.8-21.1-6.6-31.4-8.6-25.2-4.8-51.2,13.2-76.3-.7s-3.1-1.7-2.7-3.8Z"/>
      <path class="st7" d="M901,889c-6.5,2.1-13.6,3.2-20.5,4-247.8-.8-495.9,1.3-743.5-1h738.5c7-.5,13.9-1.8,20.8-3.2s3.8-1.6,4.7.2Z"/>
      <path class="st7" d="M346,732h-201c64.7-3.5,135.6,0,201,0Z"/>
      <path class="st7" d="M379,732c-4.3,1.7-11.9,1.7-16,0,5.3,0,10.7,0,16,0Z"/>
      <path class="st7" d="M360,732c-2.2,1.7-8,1.7-10,0,3.3,0,6.7,0,10,0Z"/>
      <path class="st7" d="M392,732c-2.2,1.7-8,1.7-10,0,3.3,0,6.7,0,10,0Z"/>
      <path class="st7" d="M126,890c1.9-2.3,5.4.5,8,0l-1,1c-2.3-.4-4.3-.3-7-1Z"/>
      <path class="st7" d="M400,732c-.9,1.6-5,1.6-6,0,2,0,4,0,6,0Z"/>
      <path class="st3" d="M258,591l-16-27c137.6-2.5,275.2-15.3,410.2-41.3,42.5-8.2,84.6-18.4,126.8-27.7-12,33-29.9,63.7-50.6,91.9l-17.4,21.1c-30.5,4.8-36.9-4.7-62-14-.6-1.9-2.4-2-4-2.5-13.9-5.2-28.7-5.4-43.3-3.2l-13.8,4.7c-32.9,9.7-46.9,23.8-85,12,.5-2.6-1.3-2-2.7-2.7-18.1-8.2-36.4-16.1-56.8-16.3-1.9,0-4.1-.9-3.5,2-.7,0-1.3,0-2,0-5.5-2.2-14.7.4-20.2,2.3s-3.3.2-2.8,2.7c-26.5,7.6-40.2,18.3-70.5,16-34.3-2.6-45.8-24.2-86.5-18Z"/>
      <path class="st3" d="M802,425c-2,8.6-4.4,17.1-7,25.5-1.4,4.5-7.3,24.3-10.1,25.9-47.9,12.3-96.2,23.1-144.8,32.2-124.9,23.5-256.9,37.9-383.6,40.4-5.9.1-17.9.9-23,0s-1.6-.6-2.4-1.6c-1.4-1.7-6.8-13.8-7.1-15.9s.2-1.3,1.5-1.5c9.9-1.4,24.4.4,35.1,0,106-3.1,224.7-9.9,328.6-30.4,32.6-6.4,56.4-15.8,77.6-42.4,18.7-4.4,37.4-8.4,56.1-12.9,26.4-6.5,52.7-13.9,79.2-19.3Z"/>
      <path class="st7" d="M525,491c-10.3,1.4-20.7,2.8-31,4-.6-3.1,1.6-1.7,3.4-2,6.8-1.1,15.2-2.4,22.1-3s4.5-.6,5.5,1Z"/>
      <path class="st0" d="M486,379c7.6,12.8,16.2,27.8,23,41,5.2,10.2,12.1,18-3.6,20.9s-17.2,2.1-25.4,3.1-.7,0-1,0c-8.6,1.1-17.5,1.9-26,4-1,0-2.2.2-3,0l-3.8-5.7c-1.1-20.6-6.3-41.8-7.2-62.3,0-1,0-2,0-3s-.6-4.3.6-5.1l35.8-5.9c5.1.5,8.2,8.9,10.6,13Z"/>
      <path class="st0" d="M409,403c-18.3,8.9-32.6-13.7-15-25,7.3-1.5,14.5-1.8,18.8,5.7,5.1,8.7,1.1,12.8-3.8,19.3Z"/>
      <path class="st7" d="M487,346c.6,3.2-1.6,1.7-3.5,2-30.1,3.9-60.4,7.3-90.5,11v-1c31.3-3.9,62.8-7.4,94-12Z"/>
      <path class="st7" d="M450,448c-4.4-.9-5-6-5.7-9.8-2.8-14.4-5-35.9-6.2-50.7s-.7-5.9,1-7.5c.9,20.5,6.1,41.7,7.2,62.3l3.8,5.7Z"/>
      <path class="st7" d="M509,420c.7-2.4,1.7.9,2,1.5,2.5,5.3,9,13.4,3.8,18.2s-24.6,4.9-29.3,5.3-3.9.4-5.5-1c8.2-1,17.3-1.7,25.4-3.1,15.7-2.8,8.9-10.7,3.6-20.9Z"/>
      <path class="st7" d="M439,377c-2.8-3.1,0-6.5,3-7.5s27.1-4.7,31.5-4.6c6.4.2,8.4,3.8,11.2,8.9s2.6,4.8,1.3,5.2c-2.4-4.1-5.5-12.5-10.6-13l-35.8,5.9c-1.2.8-.5,3.8-.6,5.1Z"/>
      <path class="st7" d="M479,444c.8,2.7-5.1,2.7-6.6,2.9-5.9.8-13.5,1.6-19.4,1.1,8.5-2.1,17.4-2.9,26-4Z"/>
      <path class="st8" d="M393,358v1c-5.7.7-11.7,2.5-17.5,3s-5.2.7-6.5-1c8-1,16-2,24-3Z"/>
      <path class="st7" d="M394,378c-17.6,11.3-3.3,33.9,15,25-.1.2,2,1.1-2,2.5-17.5,6.1-30.1-15.9-16.5-26.5,2.6-2,2.8-.8,3.5-1Z"/>
      <path class="st0" d="M202,769c2.5,10.3-5.7,6.5-11,7.4s-33.6,10.6-38.7,13.3-1.7,0-1.3,2.2l65,1c.1,0,1.8,1.8,2,2,.6,1.8.9,3.6,1,5.5.6,11.8,1,30.6,0,42s-3.5,8-9.4,8.6c-22.6-2-49,2.4-71.1,0s-7-2.5-8.5-7c0-13.4-1.7-33,0-45.6s6.8-5.1,10-7,1.4-2.9,3.7-4.3c11.4-6.5,34.7-10.1,47.8-16.2,5.7-2.6,2.6-5.8,10.4-2.1ZM141,801c-.4,0-.7,0-1,0-3.7,1.3-3.8,7.4,0,9h67.5c3.4-.4,4.1-4.1,3.5-7s-1.1-1.7-2-2-.7,0-1,0h-67ZM206.7,839.7c11.1-11.1-5.8-29.5-17.7-18.2s6,29.9,17.7,18.2ZM145.6,819.1c-3.1,1-1.1,5.1,2.9,3.9s1.1-5.1-2.9-3.9ZM153.6,819.1c-3.1,1-1.1,5.1,2.9,3.9s1.1-5.1-2.9-3.9ZM166,819c-.5-.5-6,0-6,1.5.1,4.3,9.1,1.6,6-1.5ZM145.6,825.1c-3.1,1-1.1,5.1,2.9,3.9s1.1-5.1-2.9-3.9ZM153.6,825.1c-3.1,1-1.1,5.1,2.9,3.9s1.1-5.1-2.9-3.9ZM166,829c.6-3.8-1.7-4.4-5-4v4s5,0,5,0ZM150,832c-.4-.7-4.3-.9-5.4-.1-5.2,4,8.8,5.4,5.4.1ZM152,835c2.5,1.3,7.1,1.5,6-2.5s-6.5-.8-6,2.5ZM163.7,831.1c-.8,0-3.6,1.9-3.6,2.4,5.4,6.9,8.2-2.8,3.6-2.4ZM145.6,838.1c-3.1,1-1.1,5.1,2.9,3.9s1.1-5.1-2.9-3.9ZM153.6,838.1c-3.1,1-1.1,5.1,2.9,3.9s1.1-5.1-2.9-3.9ZM161,842c1.8,1.8,8-2.4,3.4-3.9s-4.3,3-3.4,3.9Z"/>
      <path class="st3" d="M405,783c2.1.8,4,2.2,6,3,.7.6,3.5,3.4,4,4,2.1,4,4,7.6,5,12-1.7,1-1.1,3.7-.9,5.4,1.2,12-.5,23.3-10.1,31.6-7.7,6.7-14.2,4.9-24,5-3.2-1.5-12.2-8.8-13-9l-1-1c-.3-.5-.8-.7-1-1-5.5-8.8-5.3-18.9-5-29,.5,0,.8,0,1-.5,3-19.6,21.3-27.1,39-20.5ZM386,789c-2.2,1.6-4.5,5.9-5,6s-.5-.9-1-1c-2.9,11.7-5.3,26.5,2,37s4,4.3,5,5c5.3,3.8,11.6,2.7,15-3,.3,0,.7,0,1,0s.3,1.1,1,1c6-11.8,4.9-26.5,2-39-.4,0-.9,1-1,1-.9-.1-2-2.8-3-4s-1.3-1.8-3-3c-4.9-3.3-8-3.7-13,0Z"/>
      <path class="st3" d="M677,786c.4.2.7.7,1,1,4,7.5,3.8,14.5,0,22-.3.3-.6.7-1,1-2.4,1.2-9.2,1.2-8,4,8.9,3.9,10.5,15,15.5,21.9s3.3,2.6,4.5,4.1c-2.5,4.1-10.4,1.1-15,2-7.4-3.7-7.3-29.3-21-26,.8,7.6-1.9,17.3,2,24,.6,3-1.5,1.9-3.5,2-3.9.2-12.4,1.4-14.5-2,.6-.9,2.3-1.8,3-3,3-5.3,2.7-36,2-43.5-.4-4.3-.5-4.4-3-7.5s-.7-.7-1-1c-.6-3,1.5-1.9,3.5-2,9.2-.3,27.8-1.3,35.5,3ZM654,787c-.3.3-.8.7-1,1-.9,1.6-2.2,3.5,0,5v12c-2.1,1.9-.5,2.7,0,4s.2,1.3,1,2c3.8,3.3,8.7.4,12-2s1.8-1.8,2-2c3.3-4,3.7-5.9,3-11.5s-1.9-3.9-4-5.5-.7-.8-1-1c-1.1-4.7-8.4-4.9-12-2Z"/>
      <path class="st3" d="M878,783c1.5.6,2,1.4,3,2,.4,1.4,1.5,2,3,2,.4.3.6.7,1,1,7.1,8.8,8.6,19.9,8,31,0,.3,0,.7,0,1-.7,2.3-3.5,7.5-2,9-.8,2.1-2.7,3.7-3,6-1.4,1-2.5,2.2-4,3-4.9,2.7-13,5.4-19.5,5-5.9-.4-14.5-3.6-18.5-8s-.7-.6-1-1c-4.9-6.7-5.8-21.2-4.7-29.2,1.9-13.9,12.1-22.9,26.2-22.8s7.9,2.3,11.5,1.1ZM852,803c-1.6,6.1-1,11.7-1,18,.5-.1.8-1,1-1,.5,0,.8,0,1,.5.1,1.8.4,3.8,1,5.5,2.9,7.8,5.9,13.5,15.4,11.9s7.1-5,8.6-8.9.9-1.5,1-2,0-1.4,0-2c.8-1.2.9-2.6,1-4s0-.7,0-1c.1-3.5.2-7.5,0-11s.1-2.7,0-4c-.3-3.8-1.3-9.3-4-12s-.7-.7-1-1c-3.8-8.4-14.7-6.9-19,.5-1.3,2.2-3.3,8-4,10.5Z"/>
      <path class="st3" d="M788,783c6.2,0,12.7,7.8,15,13-2,2.4.7,5.6,1,8.5.8,9-.2,26-8,32.1-7.8,6.1-28.7,5.8-38.6,5.5s-4,1-3.5-2c.4-.6.7-1.3,1-2,.5-1.1.7-1.8,1-3h1c1.7-1,1-3.8,1-5.5.2-13.3-.2-26.7,0-40,0-1.2-1,.5-1,.5-.2-.1-2.9-3.8-3-4-.3-.6-.8-1.4-1-2,10.6-2.2,21.9-.9,32.6,0,1.3.1,2.3-1.1,2.4-1ZM769,837c1,2.9,13.4,0,16-1.5,7.9-5,7.7-20.7,7.1-29-1.2-15.2-7.3-21.4-23-19.5v50Z"/>
      <path class="st3" d="M499,784c4-1.3,10.5-1.6,14.6-1.1s1.2,3,2.4,1.1c8.5,11.7,15.3,24.5,24,36s.2,2.4,1.5,3l.5-2c0,.2,1.3,4.2,2,2.5v-35.5s-2,4-2,4c0-1.3.2-2.9,0-4s-1.8-3.6-2-4c2.7-1.7,9.1-1.7,12,0-.2.6-1,2.6-1,3-.5.4-1.7.6-2,1-.9,1-.9.9-1.1,2.4-1.7,16.1,1.4,35.2,0,51.6l-9,1c-8.9-12.8-17.1-26.1-26-39-1.1-1.6-1.4-3.2-3-5s.1-1.2-1-1c-1.7,1-1,3.8-1,5.5,0,9.3-.1,18.7,0,28,0,1.7-.6,4.4,1,5.5l2,1c.2,1.1,2.8,2.8,2,5h-15c.8-3.4,3.2-4,4-8s0-.7,0-1h1c.2.6-.4,3.1,1,1.5-1-14.2,1.4-30.1,0-44.1s.2-2.3-1-2.4h-1c0-.3,0-.7,0-1s1.4-.3,0-3l-1,1h-1c-.2-.7-.8-1.3-1-2Z"/>
      <path class="st3" d="M343,782c1.3.2,1.8.9,2,1,3.3,2.3,7.1,6.5,10,2s.4-4.6,4-2.5c-1.4,2.1-1.4,23-6.1,16.9s-2.4-6.6-5.4-9.4c-4.4-4.2-13.8-6.5-16.7.2-5.2,11.9,14.3,15.1,21.2,20.3,17.8,13.4,4.3,36.4-16.2,33.2-4.3-.7-9.7-5.1-13.7-3.2s-2.3,3.4-5,2.5l2-20c1.9-.6,2.8.5,4,1,.8,3,3,5.7,5,8s1.4,1.8,3,3c3.8,2.9,9.4,5.5,13,1s.8-.6,1-1l1-1c3.1.1.6-8.8-1.4-11.1-8.4-9.2-33.4-9-24.6-30.9l3-5c.7-.7.7-1.3,2-2,5.9-3.1,10.5-2.5,16.5-2.1s1.4-.9,1.5-.9Z"/>
      <path class="st3" d="M571,785c-.6-3,1.5-1.9,3.5-2,3.4-.1,7,0,10.4.1l18.6,52.9,4.5,5.9h-20l4.1-7.5-3.1-10.5c-.4.1-.8,1-.9,1-1.1,0-.9-2.6-2-3s-15.3-.3-16.4,0c-1.2.2-.4,1.6-.6,2.1-3.4,7.4-5.8,12,0,19h-16c-.3-1.6.2-2.3,1-3.5,5.7-8.9,8.4-18.5,12-28.5s1.3-1.4,1.8-2.7c1.1-3,6.6-19.8,5.8-21.3s-1.3-.7-1.5-1-.7-.7-1-1ZM585,816l-7.5-22-6.5,22h14Z"/>
      <path class="st3" d="M712,786c-.8-1.3-2.5-2.8.5-3s12.9-.3,13.4.1,1.5,6.5,2.3,8.2,1.7,1.5,1.8,1.7c.3.6.6,1.2,1,2-2.1,1-.3,3.1.1,4.4,1.4,4,3.3,7.8,4.9,11.6s.8.6,1,1c-1.8.7-.1,3.1.3,4.2.9,2.9,1.5,6.6,3.7,8.8,0,.3,0,.7,0,1,.5,2-.1,5.6,3,5,1.3,3,1.8,6.1,4,9,.6,3-1.5,1.9-3.5,2-5.2.2-10.4-.1-15.5,0-.5-1.5.7-2.1,1-3,.7-2.2,1.2-2.5.8-5.2s-3.2-9.8-3.8-9.8c.5-3-1.6-1.9-3.4-2-4.8-.2-9.7,0-14.5.1-.3,4.9-3.7,10-3.1,14.9s.9,2.9,1,3c0,.6.2,1.9,0,2-.5.3-10.4.3-11.4,0s-.5-1.1-.6-2c.8-.9,1-1.2,2-2s1.4.5,2.1-.6c1.3-2,6.9-21.5,8.2-25.6s6-16.6,6.5-21.6.1-1.7-.8-3.2-.7-.7-1-1ZM721,805c-.4-3.4-1.2-8.8-4-11l-6,22h14l-3-7c0-.3,0-.7,0-1,0-.9,0-1.7-1-2,0-.3,0-.7,0-1Z"/>
      <path class="st3" d="M446,784c-.2.5.1,1.4,0,2-1.5.5-1.9,1.6-2,3-2.7-1.7-1.9-1-2,1.5-.6,12.4-1.2,32.1,0,44.1.1,1.5,0,1.4,1.1,2.4s.7-.1,1,0c4.7,2,6.9,1.6,11-1s3.8-2.9,5-5l1-2c.7-.6,1.4-1.4,2-2s1.5-.6,2-1c1.8,1.7,1.6,16-.5,16h-35.5c-.9-3.1,1.5-2.5,2.2-4.4,3.9-10.7-1.2-36.7.8-49.1l-1,.5h-1c-.2-1.5-.4-2.5-2-3,0-.3,0-.7,0-1,3.1-3.8,13.5-2.2,18-1Z"/>
      <path class="st3" d="M246,791c0-.2.9-.7.6-3-.5-3.6-2.8-2.1-2.6-5h17c.2.1-1,2-1,3s0,.7,0,1h-1c-1.5.1-1.5,2.9,0,3,0,.3,0,.7,0,1-3-.6-1.9,1.5-2,3.5-.2,5.2-1.2,40.8.1,42.4s1.5,0,1.9.1c5.8,2.3,12.4,1.4,15-5,.4-.3.6-.7,1-1,1.5-1.2,2.5-2,3-4,.5-.4,1.4-.6,2-1,3.3-.4,1.6,1.2,1.5,3-.3,4.3-.9,8.6-.5,13-11.3-.7-23.4.9-34.6,0-3-.2-2.7.3-2.4-3-.2-.7.5-.7,1-1s.7.9,1,.6c1.5-1.5,2.1-12.3,2-15.1s1-4-2-3.5c0-.7,0-1.3,0-2,1.7-3.2,1.7-10,0-13,0-1,0-2,0-3,1.6-.9,1.6-5,0-6,0-1.7,0-3.3,0-5Z"/>
      <path class="st3" d="M310,782c0,.1,1,.8.8,1.3-.5,1.5-2.4,2.4-3,3.9-2,4.5-1.2,48,1.3,52.7.6,3-1.5,1.9-3.5,2-3.3.1-6.8.1-10.1,0s-4,1-3.5-2c.4-.9.9-2.9,2-3s.5.9,1,1c.7-5.8,2.4-47,.8-48.8s-1.7,0-1.8-.2c-.3-.4-2.9-6.4-3-7h19Z"/>
      <path class="st3" d="M474,784c4-1.6,9.2-1.2,13.5-1s4-1,3.5,2c-.4.6-.6,1.4-1,2s-.9.7-1,1c-1.6,3.5-1.8,41.7-1.1,47.6s1.7,1.1,2.1,1.4.9,1.6,1,2-.7,2.1,0,3c-4.5-.1-9,.2-13.6,0s-4,1-3.5-2c.3-.4.7-.7,1-1,.4-.6,1.7-.8,2.2-2.2,1.4-3.4,1.4-39.7.8-45.3s-.4-2.9-2-4.5-1.5-.6-2-1c0-.6.1-1.4,0-2Z"/>
      <path class="st3" d="M816,810c.1-5.8,1.8-12.9,1-19.5-.4-3.6-2.4-4.4-3-7.5h17c0,1.8-2.6,2.9-2.9,3.8-1.7,4.6-1.9,43.2-.6,48.3s3.4,4.3,3.5,7h-17c.2-3.1,2.6-4.1,3-7.5.7-5.3.4-13,.4-18.5s2-3.5-1.5-3c0-1,0-2,0-3Z"/>
      <path class="st3" d="M278.7,780.2c4.9-1.5,8.6,2.5,8.4,7.3s-7.4,15.5-9.6,15.5-2.3-2.1-2.3-2.5c0-.9,4.1-4,3.9-7s-4.3-3.9-4-8,1.9-4.9,3.7-5.4Z"/>
      <path class="st7" d="M130,844c1.5,4.6,3.5,6.5,8.5,7,22.1,2.5,48.5-1.9,71.1,0,6-.6,8.9-2.6,9.4-8.6,1.1-11.5.7-30.3,0-42s-.5-3.7-1-5.5c1.8,2.2,2.6,1.6,3,5.5,1,9,1,32,0,41s-7,10.9-14.5,11.5c-15.3,1.4-50,1.7-65,0s-11.4-3.3-12.4-6.8.9-2.1.9-2.2Z"/>
      <path class="st7" d="M202,769c1.2.6,2.9-1.2,1.9,3.4-1.7,8.4-9.3,4.1-15.9,6.1-8.6,2.6-17.7,7.2-26.7,9.3l-1.3,2.2,53,.6c1.2.5,2,1.7,3,2.5l-65-1c-.4-2.3,0-1.6,1.3-2.2,5.1-2.8,32.9-12.3,38.7-13.3s13.6,2.9,11-7.4Z"/>
      <path class="st7" d="M551,787c-.9,8,1.7,53.8,0,56-.7,0-1.3,0-2,0v-55c.3-.4,1.5-.6,2-1Z"/>
      <path class="st4" d="M586,782c5.6,13.7,13.3,45.3,20.1,55.4,1.8,2.6,4.7,2.1,3.9,5.6h-23c-.9-2.7,1.9-3.6,2.5-5,2-4.6-1.2-8.5-1.5-13,.1,0,.5-.8.9-1l3.1,10.5-4.1,7.5h20l-4.5-5.9-18.6-52.9c-3.4-.2-7-.3-10.4-.1s-4-1-3.5,2c-3-2.9-.9-2-1-3h16Z"/>
      <path class="st7" d="M246,791c0,1.7,0,3.3,0,5s0,4,0,6,0,2,0,3c0,4.3,0,8.7,0,13s0,1.3,0,2c0,6,.7,12.2-1,18-.5.3-1.2.3-1,1h-1c3.7-15.3-.7-36.9,1-53,.8,1.6,2.4,2.7,2,5Z"/>
      <path class="st4" d="M832,782c1.5,3.3.1,1.1-.6,2.4s-.3,1.4-.4,1.6c-.9,1.7-1.7,1.4-2,4.5-1.2,10.6-.5,29.5,0,40.5s0,1.3,0,2c.3,2.8,0,5.6,3,7,.1.8,1.3,1.8,1,3h-21c-1.3-2.7,1.6-2.6,2.3-4.2,3.1-7.3,1.4-17.7,1.7-25.8,3.5-.5,1.5,1.4,1.5,3,0,5.5.3,13.2-.4,18.5s-2.9,4.4-3,7.5h17c-.1-2.7-2.8-4.4-3.5-7-1.3-5-1.1-43.7.6-48.3s3-2,2.9-3.8h-17c.6,3.1,2.6,3.9,3,7.5.8,6.6-.9,13.7-1,19.5-.7-6.4.9-14.3,0-20.4s-3.7-4.6-3.9-7.6h20Z"/>
      <path class="st7" d="M492,839h-1c-.1-.4-.8-1.8-1-2-1.7-6.7-1-14-1-21,1.4-1.3,1.4-2.8,0-4,0-8,0-16,0-24,.1-.3.8-.6,1-1,1.7,1,1,3.8,1,5.5.2,13-1.9,35,1,46.5Z"/>
      <path class="st4" d="M640,837l-1-51c2.5,3,2.7,3.2,3,7.5.7,7.5.9,38.2-2,43.5Z"/>
      <path class="st4" d="M259,791c0,3,0,6,0,9s0,2.7,0,4c0,5.3,0,10.7,0,16v17c-.4-.1-1.5.3-1.9-.1-1.3-1.7-.4-37.2-.1-42.4s-1-4,2-3.5Z"/>
      <path class="st4" d="M475,839v-2c.1-.4.8-.7,1-2s0-.7,0-1l1-.5-1-.5c.1-2.3,0-4.7,0-7,1.5-.1,1.5-2.9,0-3,0-3.3,0-6.7,0-10,1.5-.1,1.5-2.9,0-3v-17l1-.5-1-.5v-5c1.6,1.6,1.8,2.2,2,4.5.6,5.6.7,41.9-.8,45.3s-1.8,1.7-2.2,2.2Z"/>
      <path class="st7" d="M757,790c0,12.3,0,24.7,0,37-1.2,1-1.2,2,0,3,0,.7,0,1.3,0,2-1.4.5-.8,2-1,3s-.5,1.9-1,3l-1-52c.1.2,2.8,3.9,3,4Z"/>
      <path class="st7" d="M831,786c-.3,13.8.5,27.7,0,41.5s1,4-2,3.5c-.5-11.1-1.2-30,0-40.5.3-3,1.2-2.8,2-4.5Z"/>
      <path class="st7" d="M468,826c1.6,2,1.3,16.2.8,16.8s-1.6,0-1.8.2.6,2.4-1.4,2.1c-11.8-1.2-25.6,1.3-37.1,0s-2.8-.2-3.4-1.6c-1.4-3.2,1.9-2.4,2-2.5-.6,3,1.5,1.9,3.5,2,12.2.4,24.4-.3,36.5,0-.3-5.9,1.1-11.1,1-17Z"/>
      <path class="st4" d="M713,787c.9,1.5,1.1,1,.8,3.2-.6,4.9-4.8,16-6.5,21.6s-6.9,23.7-8.2,25.6-1.9.4-2.1.6l16-51Z"/>
      <path class="st7" d="M446,786c-2.8,16.2,0,33.5-1,50h10c-4.1,2.6-6.3,3-11,1v-2c0-15.4-1.6-30.7,0-46s.5-2.5,2-3Z"/>
      <path class="st7" d="M513,804c-2.7-1.8-1.9-1-2,1.5-.4,7.6-1.2,25.8,0,32.5l-2-1c1-12-1.4-26.3,0-38h1c1.6,1.8,1.9,3.4,3,5Z"/>
      <path class="st7" d="M430,789c.1,1-.1,2,0,3s-.1,2.7,0,4,1,1.9,1,2c.5,8.3,0,17.6,0,26-1.8,1.4-.8,4.8-1,7s0,3.2-1,6c-.8-16.8,1.6-34.5-1-51,1.6.5,1.8,1.5,2,3Z"/>
      <path class="st4" d="M431,789l1-.5c-2.1,12.4,3.1,38.4-.8,49.1-.7,1.8-3.1,1.3-2.2,4.4h35.5c2.1,0,2.3-14.3.5-16,.2-.2-.8-3,3-2,0,.7,0,1.3,0,2,0,5.9-1.3,11.1-1,17-12.2-.3-24.4.4-36.5,0s-4,1-3.5-2c1.1-1.2,1.5-2.5,2-4,.9-2.8.8-3.1,1-6,1.7-1.4,1-4.8,1-7,0-8.4.5-17.7,0-26l-1-2c-.1-1.3.2-2.7,0-4l1-3Z"/>
      <path class="st4" d="M280,826c.7-.4.8-2.7,3-2l-1,19h-40c0-1.4.7-2.7,1-4h1c-.2,3.3-.5,2.8,2.4,3,11.1.9,23.3-.7,34.6,0-.3-4.4.2-8.7.5-13s1.8-3.5-1.5-3Z"/>
      <path class="st4" d="M803,796c5.8,13.2,4.2,34.2-8.5,43s-30.2,2.7-42.5,4c-.7-2.2,1.6-2.3,2-3-.6,3,1.5,1.9,3.5,2,9.9.3,30.8.6,38.6-5.5,7.8-6.1,8.8-23.1,8-32.1s-3-6.1-1-8.5Z"/>
      <path class="st7" d="M892,796c1.2,2.6,5,9.1,5,12.3s-2.3,18.1-3.4,20.2-2.1,1.2-2.7,2.1-.5,3.5-1.1,4.1-1.6,0-1.8.2c.3-2.3,2.2-3.9,3-6,1.5-3.9,1.4-5.2,2-9s0-.7,0-1,1-1.1,1-2.4c.5-7.2-.3-13.7-2-20.6Z"/>
      <path class="st4" d="M294,789c0,.1,1.4-.3,1.8.2,1.6,1.9-.1,43-.8,48.8-.4-.1-.9-1-1-1v-3l1-.5-1-.5v-5c1.7-5.4,1.7-13.6,0-19,0-3,0-6,0-9,1.7-1.6,1.7-6.5,0-8,0-1,0-2,0-3Z"/>
      <path class="st4" d="M549,843c-3.3.2-6.7-.1-10,0l9-1c1.3-16.4-1.7-35.5,0-51.6s.2-1.4,1.1-2.4v55Z"/>
      <path class="st7" d="M637,782c.1-.4-.3-1.5.1-1.8,1.1-.9,23.8-.3,27.4-.2s4-1,3.5,2c-.9-.1-2,0-3,0l-.5-1-.5,1c-8.9-.4-18,.3-27,0Z"/>
      <path class="st7" d="M788,782h-5c-.3-1.5-3.6-1.6-4,0h-26c0-.7,0-1.3,0-2,11.4.8,24.1-2,35,2Z"/>
      <path class="st7" d="M476,787v23c0,1,0,2,0,3,0,3.3,0,6.7,0,10s0,2,0,3c0,2.3.1,4.7,0,7s0,.7,0,1,0,.7,0,1c-1.7-1-1-3.8-1-5.5-.2-14.4,1.1-29.5-1-43.5.5.4,1.6.6,2,1Z"/>
      <path class="st7" d="M502,788c0,.3,0,.7,0,1,0,1,0,2,0,3,0,5,0,10,0,15s0,10,0,15,.3,7.4,0,11,0,.7,0,1,0,.7,0,1c-1.7-1-1-3.8-1-5.5-.2-12.2,1.8-32.7-1-43.5h1l1,2Z"/>
      <path class="st7" d="M415,790c8.8,10.6,9.5,23.1,5.7,36.2l-5.7,8.8c6.3-9.4,7.4-22.2,5-33s-2.9-8-5-12Z"/>
      <path class="st7" d="M259,824c3-.6,1.9,1.5,2,3.4s-.6,6.8.6,7.7,6.2,1.3,7.8.7,1.6-2.5,2.7-3.3,1.8-.4,1.9-.6c-2.6,6.4-9.2,7.3-15,5v-13Z"/>
      <path class="st7" d="M843,833c-9.6-7.5-7.4-31.7,0-41-6.7,13.4-6.7,27.6,0,41Z"/>
      <path class="st7" d="M294,792c.1,2.6,0,5.3,0,8s0,6,0,9c0,6.3,0,12.7,0,19v7c-1.7-1-1-3.8-1-5.5-.1-11.8-.4-24.3,0-36s-.7-4.1,1-4.5c0,1,0,2,0,3Z"/>
      <path class="st7" d="M411,839c-.7,1.1-2.7,3.6-4.3,4.3-8.4,3.8-13.4,4.5-21.7.7,9.8,0,16.3,1.7,24-5h2Z"/>
      <rect class="st7" x="128" y="799" width="1" height="43"/>
      <path class="st4" d="M566,811l6-25c.3.3,1.2.4,1.5,1,.8,1.5-4.6,18.3-5.8,21.3s-1.6,2.3-1.8,2.7Z"/>
      <path class="st7" d="M242,782c0-.7,0-1.3,0-2h20.4c1-.1.7,1.3.6,2h-21Z"/>
      <path class="st4" d="M664,782c.3,0,.7,0,1,0,1,0,2.1-.1,3,0,3.3.5,6.5,1.6,9,4-7.8-4.3-26.3-3.3-35.5-3s-4-1-3.5,2c-.4-.4-1.6-.5-1.9-1.7s.8-1.2.9-1.3c9,.3,18.1-.4,27,0Z"/>
      <path class="st4" d="M779,782h9v1c-.1,0-1.1,1.2-2.4,1-10.7-.9-22-2.3-32.6,0-.1-.5,0-1.4,0-2h26Z"/>
      <path class="st7" d="M427,782c0-.7-.4-2.1.6-2h20.4c.3.2-.8,1.4-1,2h-20Z"/>
      <path class="st7" d="M706,837c-.6-4.9,2.8-10,3.1-14.9,4.8,0,9.7-.3,14.5-.1s4-1,3.4,2c0,0-.3,1.6-1,1s.3-1.7-.7-2c-1.4-.4-13.4-.2-14.4.5-2,1.3-2.3,11.3-5,13.5Z"/>
      <path class="st7" d="M473,782c0-.6,0-1.3,0-2h19.4c1-.1.7,1.3.6,2h-20Z"/>
      <path class="st7" d="M812,782c0-.7,0-1.3,0-2,3.1.6,18.6-.9,19.9.2s0,1.5.1,1.8h-20Z"/>
      <path class="st7" d="M291,782c0-.7-.4-2.1.6-2h19.4c.4.2-1,1.6-1,2h-19Z"/>
      <path class="st4" d="M727,782c1.2,3.6,2.5,7.2,3,11,0-.1-1.3-.6-1.8-1.7-.8-1.7-2-7.9-2.3-8.2-.5-.4-11.5-.2-13.4-.1-3,.2-1.3,1.7-.5,3-1.9-2-3.1-.5-2-4h17Z"/>
      <path class="st7" d="M542,792c.3,5.2,0,10.8,0,16s0,4.7,0,7-.2,4.2,0,6l-.5,2c-1.3-.6-1.1-2.5-1.5-3l2-32c.2,1.1,0,2.7,0,4Z"/>
      <path class="st4" d="M884,838v1c-7.6,5-12.4,4.8-21,5s-1.3,0-2,0c-5.8-1-10.5-4.5-15-8v-1c4,4.4,12.6,7.6,18.5,8,6.5.4,14.6-2.3,19.5-5Z"/>
      <path class="st4" d="M889,791c0,1.5.6,2.6,2,3,.4,1.1.7,1.4,1,2,1.7,6.9,2.5,13.4,2,20.6s-1,2.2-1,2.4c.6-11.1-.9-22.2-8-31,1.3,1,2.6,2,4,3Z"/>
      <path class="st7" d="M710,782c.1-.4-.3-1.5.1-1.8,1.2-1,13.5.4,16.3-.2,1.2,0,.4,1.4.6,2h-17Z"/>
      <path class="st7" d="M570,782c0-.4-1.4-1.8-1-2h16.4c1.2,0,.4,1.5.6,2h-16Z"/>
      <path class="st4" d="M678,809c3.8-7.5,4-14.5,0-22,7.2,5.8,6.3,15.9,0,22Z"/>
      <path class="st7" d="M365,804c-.3,10.1-.5,20.2,5,29-6.8-9.5-8-18.4-6-30,.5.1.8,1,1,1Z"/>
      <path class="st7" d="M499,782c.1-.4-.3-1.5.1-1.8s14-.5,15.3-.2.4,1.6.6,2.1h-16Z"/>
      <path class="st4" d="M730,839c-.3.9-1.5,1.5-1,3,5.2-.1,10.4.2,15.5,0s4,1,3.5-2c.2.3,3-.9,2,3h-23s3-4,3-4Z"/>
      <path class="st4" d="M492,839c.3,1.2,1.5,2.3,1,4h-21c-.4-.3,1.6-2.5,2-3-.6,3,1.5,1.9,3.5,2,4.5.2,9.1-.1,13.6,0-.7-.9,0-2.9,0-3h1Z"/>
      <path class="st4" d="M263,782c-.3,2.1-1.1,3.2-3,4,0-1,1.2-2.8,1-3h-17c-.2,2.9,2.1,1.4,2.6,5s-.6,2.8-.6,3c.4-2.3-1.2-3.4-2-5s-1.8-2.1-2-4h21Z"/>
      <path class="st4" d="M878,783c-3.6,1.2-7.5-1.1-11.5-1.1-14.1,0-24.4,9-26.2,22.8s-.2,22.5,4.7,29.2c-.6-.4-1.5-.6-2-1-6.7-13.4-6.7-27.6,0-41,8.3-10.4,22.6-14.1,35-9Z"/>
      <path class="st4" d="M637,840c2.2,3.4,10.6,2.2,14.5,2s4,1,3.5-2c.4.7,2.7.8,2,3h-20.5c-1.4-.5,0-2.2.5-3Z"/>
      <path class="st4" d="M736,811c-1.5-3.9-3.5-7.6-4.9-11.6s-2.2-3.4-.1-4.4c2.2,5,4.8,10.5,5,16Z"/>
      <path class="st4" d="M493,782c-.3,2.6-1.5,2.2-2,3,.6-3-1.5-1.9-3.5-2-4.3-.2-9.5-.6-13.5,1,0-.3-.9-1-1-2h20Z"/>
      <path class="st4" d="M292,840c-.6,3,1.5,1.9,3.5,2,3.3.1,6.8.1,10.1,0s4,1,3.5-2c.3.6,2.7.9,2,3h-19.5c-1.7-.9.2-2.3.5-3Z"/>
      <path class="st7" d="M884,839c0,.6.3,1.5-.1,1.8s-10.6,4.5-11.8,4.7-9.8,2.1-9.1-1.6c8.6-.2,13.4,0,21-5Z"/>
      <path class="st4" d="M447,782c-.3.7-.9,1.7-1,2-4.5-1.2-14.9-2.8-18,1-.2-.9-.9-1.8-1-3h20Z"/>
      <path class="st4" d="M695,840c0,.9-.5,1.7.6,2s10.9.3,11.4,0,0-1.4,0-2c.1.2,3.8-.4,1.4,3h-15.4c-.4-.3,1.6-2.5,2-3Z"/>
      <path class="st4" d="M689,840c.8,1,1.5,1.2,1,3-5.1-.5-11.5,1.2-16-1,4.6-.9,12.5,2.1,15-2Z"/>
      <path class="st4" d="M515,782c.3.7.7,1.3,1,2-1.2,2-.3-.8-2.4-1.1-4.1-.5-10.6-.2-14.6,1.1,0-.2-.7-.4-.8-.8-.1-.8.7-1,.8-1.2h16Z"/>
      <path class="st7" d="M259,800c0-3,0-6,0-9s0-.7,0-1c0-1,0-2,0-3h1c0,3.6.8,8.1-.2,12.3l-.8.7Z"/>
      <path class="st7" d="M259,804c1.7,3.8,1.1,8.9,1.3,13.2s2.2,3.2-1.3,2.8c0-5.3,0-10.7,0-16Z"/>
      <path class="st7" d="M586,822l-17,2c.2-.5-.6-1.9.6-2.1,1.1-.3,15.6-.2,16.4,0Z"/>
      <path class="st4" d="M343,782c0,0-.7.9-1.5.9-6-.4-10.7-1-16.5,2.1,4.9-4.3,12-5,18-3Z"/>
      <path class="st4" d="M540,784c-.3-.5-2.1-.8-2-2h14.5c1.9,1.2-.4,1.8-.5,2-2.9-1.7-9.3-1.7-12,0Z"/>
      <path class="st7" d="M344,836c-3.6,4.5-9.2,1.9-13-1,4.7,1.6,8.1,2.6,13,1Z"/>
      <path class="st7" d="M861,844c-.2,0-.9,1.1-3.2.8-4.2-.5-4.8-2.8-6.6-3.8s-2.3.3-3-.2-1.7-4.1-2.2-4.8c4.5,3.5,9.2,7,15,8Z"/>
      <path class="st7" d="M829,833c2.9-1,2.6,4.7,3,7-3-1.4-2.7-4.2-3-7Z"/>
      <path class="st4" d="M677,810c-2.4,1.9-4.9,3.5-8,4-1.2-2.8,5.6-2.8,8-4Z"/>
      <path class="st4" d="M355,785c-2.9,4.5-6.7.3-10-2,3.4.9,6.9,3.8,10,2Z"/>
      <path class="st7" d="M463,827c.4-3.5,4.7-8.1,5-3-3.8-1-2.8,1.8-3,2-.5.4-1.5.6-2,1Z"/>
      <path class="st7" d="M889,791c.2.2,1.5-.3,1.9,0s-.1,2.2.1,2.9c-1.4-.4-2-1.5-2-3Z"/>
      <path class="st7" d="M323,824c.3.1,1.2-.3,1.8.2s2.3,6.4,3.2,7.8c-2-2.3-4.2-5-5-8Z"/>
      <path class="st4" d="M320,792c1.2-2.9.6-2.6,3-5l-3,5Z"/>
      <path class="st7" d="M275,831c0-2.5,1.7-2.8,3-4-.5,2-1.5,2.8-3,4Z"/>
      <path class="st4" d="M744,831c-3.1.6-2.5-3-3-5,.9,1.5,2.3,3.4,3,5Z"/>
      <path class="st4" d="M415,835c-.2.2-2.2,1.1-4,4h-2c9.6-8.3,11.3-19.6,10.1-31.6s-.8-4.3.9-5.4c2.4,10.8,1.3,23.6-5,33Z"/>
      <path class="st4" d="M741,825c-2.2-2.2-2.8-5.8-3.7-8.8s-2.1-3.6-.3-4.2c1.5,3.9,2.8,8.9,4,13Z"/>
      <path class="st4" d="M884,787c-1.5,0-2.6-.6-3-2,1.1.7,1.9,1.3,3,2Z"/>
      <path class="st7" d="M411,786c-2-.8-3.9-2.2-6-3,2.5-1.3,4.5,1.7,6,3Z"/>
      <path class="st7" d="M346,834l-1,1c.2-.4-.1-1.4,0-2,1.1-.2.9,1,1,1Z"/>
      <path class="st7" d="M372,835c0,0-.4,1-1,1-.2-.6.2-1.7,0-2l1,1Z"/>
      <path class="st7" d="M475,838c-1.6-.6,0-.7,0-1v1Z"/>
      <path class="st7" d="M460,831c-2.2-.6.2-1.3,1-2l-1,2Z"/>
      <path class="st4" d="M440,588c-.6-2.9,1.6-2,3.5-2,20.3.2,38.7,8.1,56.8,16.3s3.3.1,2.7,2.7c-23.7-7.3-35.4-18.1-63-17Z"/>
      <path class="st4" d="M649,594c-6.5-2.4-16-4.4-23-5s-2.7,0-4,0c-.9-1.6-5-1.6-6,0-1,0-2,0-3,0l-.5-1-.5,1c-.3,0-.7,0-1,0-7.5.5-15.8,1.9-23,4l13.8-4.7c14.6-2.2,29.3-2,43.3,3.2s3.3.6,4,2.5Z"/>
      <path class="st4" d="M438,588c-8.1.6-15.3,2.8-23,5-.5-2.5,1.2-2.1,2.8-2.7,5.6-1.9,14.7-4.5,20.2-2.3Z"/>
      <path class="st1" d="M613,589c1,0,2,0,3,0,2,0,4,0,6,0s2.7-.1,4,0c-3.9,1.7-11.3,1.7-15,0,.3,0,.7,0,1,0s.7,0,1,0Z"/>
      <path class="st8" d="M209,801c.9.3,1.8,1,2,2-2,1.8,0,5.9-3.5,6l-67.5,1c-3.8-1.6-3.7-7.7,0-9h69Z"/>
      <path class="st8" d="M206.7,839.7c-11.7,11.7-30-6.6-17.7-18.2s28.8,7.1,17.7,18.2Z"/>
      <path class="st7" d="M208,801c.3,0,.7,0,1,0h-69c.3,0,.6,0,1,0h67Z"/>
      <path class="st7" d="M140,810l67.5-1c3.6-.1,1.5-4.2,3.5-6,.6,2.9-.2,6.6-3.5,7h-67.5Z"/>
      <path class="st6" d="M208,801h-67,67Z"/>
      <path class="st8" d="M152,835c-.6-3.3,5.1-5.6,6-2.5s-3.5,3.7-6,2.5Z"/>
      <path class="st8" d="M150,832c3.5,5.3-10.5,3.8-5.4-.1s4.9-.5,5.4.1Z"/>
      <path class="st8" d="M163.7,831.1c4.6-.4,1.8,9.3-3.6,2.4,0-.5,2.9-2.3,3.6-2.4Z"/>
      <path class="st8" d="M145.6,819.1c4-1.2,6,2.9,2.9,3.9s-6-2.9-2.9-3.9Z"/>
      <path class="st8" d="M153.6,825.1c4-1.2,6,2.9,2.9,3.9s-6-2.9-2.9-3.9Z"/>
      <path class="st8" d="M153.6,819.1c4-1.2,6,2.9,2.9,3.9s-6-2.9-2.9-3.9Z"/>
      <path class="st7" d="M145.6,838.1c4-1.2,6,2.9,2.9,3.9s-6-2.9-2.9-3.9Z"/>
      <path class="st8" d="M153.6,838.1c4-1.2,6,2.9,2.9,3.9s-6-2.9-2.9-3.9Z"/>
      <path class="st7" d="M145.6,825.1c4-1.2,6,2.9,2.9,3.9s-6-2.9-2.9-3.9Z"/>
      <path class="st8" d="M166,829h-5s0-4,0-4c3.3-.4,5.6.2,5,4Z"/>
      <path class="st8" d="M166,819c3.2,3.1-5.9,5.8-6,1.5s5.5-2,6-1.5Z"/>
      <path class="st7" d="M161,842c-.9-.9-.9-5.2,3.4-3.9s-1.6,5.7-3.4,3.9Z"/>
      <path class="st8" d="M399,789c1.7,1.2,1.8,1.7,3,3,3.4,10.3,3.6,21.2,3,32s0,.7,0,1c-1.7,1.3-3.1,5-2,7v1c-.3,0-.7,0-1,0-1.3.3-2,2-3.1,2.4-4.6,1.8-7.2,1.4-11.9.6-1-.7-4.3-3.9-5-5-3.6-11.9-4-24-1-36,.5,0,2.8-4.4,5-6l.5.9c4.3-2.9,7.9-1.4,12.5-.9Z"/>
      <path class="st7" d="M405,796c1.7,8.9,4.1,19.4,0,28,.6-10.8.4-21.7-3-32,1,1.2,2.1,3.9,3,4Z"/>
      <path class="st4" d="M381,795c-3,12-2.6,24.1,1,36-7.2-10.5-4.9-25.4-2-37,.4.1.9,1,1,1Z"/>
      <path class="st4" d="M405,796c0,0,.6-1,1-1,2.9,12.5,4,27.2-2,39-.7.1-.9-1-1-1v-1c1.7-2.4,1.8-4.3,2-7s0-.7,0-1c4.1-8.6,1.7-19.1,0-28Z"/>
      <path class="st7" d="M399,789c-4.6-.5-8.3-2-12.5.9l-.5-.9c5-3.7,8.1-3.3,13,0Z"/>
      <path class="st7" d="M387,836c4.8.8,7.3,1.2,11.9-.6s1.8-2.1,3.1-2.4c-3.4,5.7-9.7,6.8-15,3Z"/>
      <path class="st8" d="M666,789c.3.2.6.7,1,1,4,5.1,3.9,11.5,1,17-.2.2-1.9,1.9-2,2-4,1.2-7.7,2.6-12,2-.8-.7-.7-1.2-1-2v-21c.2-.3.7-.7,1-1,5-.5,7.6,0,12,2Z"/>
      <path class="st4" d="M666,789c-4.4-2-7-2.5-12-2,3.6-2.9,10.9-2.7,12,2Z"/>
      <path class="st4" d="M667,790c2.2,1.6,3.5,1,4,5.5s.3,7.5-3,11.5c2.9-5.5,3-11.9-1-17Z"/>
      <path class="st4" d="M666,809c-3.3,2.4-8.2,5.3-12,2,4.3.6,8-.8,12-2Z"/>
      <path class="st4" d="M653,793c-2.2-1.5-.9-3.4,0-5v5Z"/>
      <path class="st4" d="M653,809c-.5-1.3-2.1-2.1,0-4v4Z"/>
      <path class="st8" d="M854,826v-21.5c1.4-7.1,2.7-16.3,11.5-16.5s4.9,1.6,7.5,3.4,1.8.5,1.9.6c.3.3.7.7,1,1,.5,1.8,1.7,11.5,2,12s1.4,0,2,0c.1,1.3,0,2.7,0,4-1.7,2.3-1.7,8.5,0,11,0,.3,0,.7,0,1-4.3-.6-1.1,3.1-1,4s0,1.4,0,2c-1.7,0-2.3-.4-2,1.5l1,.5c-1.5,3.9-4,8.2-8.6,8.9-9.5,1.6-12.6-4.2-15.4-11.9Z"/>
      <path class="st7" d="M875,792c-.1-.1-1.2,0-1.9-.6-2.6-1.8-1.9-3.6-7.5-3.4-8.9.2-10.1,9.4-11.5,16.5v21.5c-.6-1.7-.9-3.6-1-5.5-.2-.5-.5-.6-1-.5v-17c.6-2.5,2.7-8.3,4-10.5,4.3-7.4,15.3-8.8,19-.5Z"/>
      <path class="st7" d="M880,805c-.6,0-1.8.2-2,0-.4-.5-1.5-10.2-2-12,2.7,2.7,3.7,8.2,4,12Z"/>
      <path class="st4" d="M852,820c-.2,0-.5.9-1,1,0-6.3-.6-11.9,1-18v17Z"/>
      <path class="st7" d="M880,820c-1.7-2.5-1.7-8.7,0-11,.2,3.5.1,7.5,0,11Z"/>
      <path class="st7" d="M880,821c-.1,1.4-.2,2.8-1,4,0-.9-3.3-4.6,1-4Z"/>
      <path class="st4" d="M891,829c-1.5-1.5,1.3-6.7,2-9-.6,3.8-.5,5.1-2,9Z"/>
      <path class="st7" d="M879,827c0,.5-.8,1.4-1,2l-1-.5c-.3-1.8.3-1.6,2-1.5Z"/>
      <path class="st8" d="M769,837v-50c15.7-1.9,21.9,4.3,23,19.5s.8,24-7.1,29c-2.6,1.6-15,4.5-16,1.5Z"/>
      <path class="st4" d="M769,837v-50,50Z"/>
      <path class="st4" d="M757,835c0-1,0-2,0-3s0-1.3,0-2c0-1,0-2,0-3,0-12.3,0-24.7,0-37,0,0,1-1.7,1-.5-.1,13.3.2,26.7,0,40s.6,4.4-1,5.5Z"/>
      <path class="st2" d="M757,835h-1c.2-1-.4-2.5,1-3,0,1,0,2,0,3Z"/>
      <path class="st4" d="M503,789c1.3.1,1,1.5,1,2.4,1.3,13.9-1.1,29.9,0,44.1-1.4,1.6-.8-.8-1-1.5s-.6-.8-1-1c.3-3.6,0-7.4,0-11,1.7-3.7,1.7-11.1,0-15,0-5,0-10,0-15l1-3Z"/>
      <path class="st4" d="M542,792l2-4v35.5c-.7,1.7-2-2.3-2-2.5-.2-1.8,0-4.1,0-6,1.7-1.3,1.7-5.7,0-7,0-5.2.3-10.8,0-16Z"/>
      <path class="st4" d="M509,799c-1.4,11.7,1,26,0,38-1.7-1-1-3.8-1-5.5-.1-9.3,0-18.7,0-28s-.6-4.4,1-5.5c0,.3,0,.7,0,1Z"/>
      <path class="st2" d="M502,792c0-1,0-2,0-3h1l-1,3Z"/>
      <path class="st4" d="M502,788l-1-2,1-1c1.4,2.7,0,2.8,0,3Z"/>
      <path class="st2" d="M503,834h-1c0-.3,0-.7,0-1,.4.2.9.6,1,1Z"/>
      <path class="st6" d="M510,799h-1c0-.3,0-.7,0-1,1.1-.2.9.9,1,1Z"/>
      <path class="st7" d="M585,816h-14l6.5-22,7.5,22ZM579,802c-.1,0-2.9-.1-3,0-.4.4-2.5,11.5-2,12h8c-.5-1.7-2.5-11.6-3-12Z"/>
      <path class="st8" d="M722,809c.3,2,.5,4,1,6l-9-1,3-14,4,5c0,.3,0,.7,0,1,0,.9,0,1.7,1,2,0,.3,0,.7,0,1Z"/>
      <path class="st7" d="M721,805l-4-5-3,14,9,1c-.5-2-.7-4-1-6l3,7h-14l6-22c2.8,2.2,3.5,7.6,4,11Z"/>
      <path class="st7" d="M722,808c-1-.3-.9-1.1-1-2,1,.3.9,1.1,1,2Z"/>
      <path class="st4" d="M444,789c-1.6,15.3,0,30.6,0,46l-1,2c-1-1-.9-.9-1.1-2.4-1.2-12-.6-31.7,0-44.1s-.7-3.2,2-1.5Z"/>
      <path class="st2" d="M430,792c-.1-1,.1-2,0-3h1l-1,3Z"/>
      <path class="st2" d="M444,837c-.3-.1-.8.2-1,0l1-2v2Z"/>
      <path class="st4" d="M246,820c3-.6,1.9,1.5,2,3.5,0,2.8-.5,13.6-2,15.1s-.9-.6-1-.6c1.7-5.8.9-12,1-18Z"/>
      <path class="st4" d="M246,818c0-4.3,0-8.7,0-13,1.7,3,1.7,9.8,0,13Z"/>
      <path class="st4" d="M246,802c0-2,0-4,0-6,1.6,1,1.6,5.1,0,6Z"/>
      <path class="st4" d="M259,790c-1.5-.1-1.5-2.9,0-3,0,1,0,2,0,3Z"/>
      <path class="st4" d="M489,812c0,1.3,0,2.7,0,4,0,7-.7,14.3,1,21-.4-.3-1.8,1.1-2.1-1.4-.7-5.9-.5-44,1.1-47.6,0,8,0,16,0,24Z"/>
      <path class="st2" d="M489,816c0-1.3,0-2.7,0-4,1.4,1.2,1.4,2.7,0,4Z"/>
      <path class="st2" d="M476,813c0-1,0-2,0-3,1.5.1,1.5,2.9,0,3Z"/>
      <path class="st2" d="M476,826c0-1,0-2,0-3,1.5.1,1.5,2.9,0,3Z"/>
      <path class="st2" d="M476,834c0-.3,0-.7,0-1l1,.5-1,.5Z"/>
      <polygon class="st2" points="476 793 476 792 477 792.5 476 793"/>
      <path class="st2" d="M757,830c-1.2-1-1.2-2,0-3,0,1,0,2,0,3Z"/>
      <path class="st2" d="M430,831c.2-2.2-.8-5.6,1-7,0,2.2.7,5.6-1,7Z"/>
      <path class="st2" d="M431,798c0-.1-.9-.2-1-2l1,2Z"/>
      <path class="st3" d="M294,828c0-6.3,0-12.7,0-19,1.7,5.4,1.7,13.6,0,19Z"/>
      <path class="st3" d="M294,800c0-2.7.1-5.4,0-8,1.7,1.5,1.7,6.4,0,8Z"/>
      <polygon class="st3" points="294 834 294 833 295 833.5 294 834"/>
      <path class="st8" d="M665,782c-.3,0-.7,0-1,0l.5-1,.5,1Z"/>
      <path class="st6" d="M783,782h-4c.4-1.6,3.7-1.5,4,0Z"/>
      <path class="st2" d="M502,822c0-5,0-10,0-15,1.7,3.9,1.7,11.3,0,15Z"/>
      <path class="st3" d="M542,815c0-2.3,0-4.7,0-7,1.7,1.3,1.7,5.7,0,7Z"/>
      <path class="st3" d="M622,589c-2,0-4,0-6,0,1-1.6,5.1-1.6,6,0Z"/>
      <path class="st3" d="M613,589c-.3,0-.7,0-1,0l.5-1,.5,1Z"/>
      <path class="st7" d="M403,832c-1.1-2,.3-5.7,2-7-.2,2.7-.3,4.6-2,7Z"/>
      <path class="st8" d="M579,802c.5.4,2.5,10.3,3,12h-8c-.5-.5,1.6-11.6,2-12s2.9,0,3,0Z"/>
    </g>
  </g>
  <g id="Layer_2">
    <path class="st0" d="M236.3,607.9c-2.1-4.4-10.7-24.1-11-27.6-.4-6.4,5.8-9.8,11.5-10.4l61-1,2.1-.9c-1-25.5-6.2-51.1-9.6-76.6-3.3-24.8-5.9-50-9.1-74.9s-10.5-61.2-12.9-90.1-1.3-12.4,4.7-13.3,6.2,5.7,7,9.6l35.3,245.2c12.1-.1,24.4-.2,36.5-.9,13.1-.8,26.3-2.2,39.5-3,25.3-1.7,50.7-3.9,76-6,4-.3,13.7.3,15.3,0s.6-1.8,1.3-2c4.3-1,11.4.4,14.7,0s.5-1.9,1.3-2c3.5-.8,11.2-.5,15.3-1,10.3-1.2,20.7-2.6,31-4,13.3-1.8,26.8-3.7,40-6,23.7-4.1,52.9-7.6,71.5-24,9.6-8.5,10.3-17.1,23.7-21.3,46.7-14.5,99.6-20.6,146.5-36.5,5.3-2,14.4,2.4,15.8,7.7.6,2.2-1.4,11.2-2.1,14-9.6,42.5-29.2,85.9-47.5,125l-32,48c-10,2.9-19,8.3-30,10l17.4-21.1c20.7-28.2,38.6-58.9,50.6-91.9-42.2,9.3-84.3,19.5-126.8,27.7-135,26-272.6,38.8-410.2,41.3l16,27c-5.7.9-11.4,1.4-17,3-8.7-14.5-18.7-28.7-26-44ZM823.3,482.9c-26.5,5.4-52.8,12.8-79.2,19.3s-37.4,8.6-56.1,12.9c-21.2,26.7-45,36-77.6,42.4-103.9,20.5-222.7,27.3-328.6,30.4-10.6.3-25.2-1.4-35.1,0s-1.8-.5-1.5,1.5,5.8,14.2,7.1,15.9,1,1.3,2.4,1.6c5.1.9,17.1.2,23,0,126.7-2.5,258.8-16.9,383.6-40.4,48.6-9.1,96.9-19.9,144.8-32.2,2.8-1.6,8.7-21.4,10.1-25.9,2.6-8.4,5-16.9,7-25.5Z"/>
    <path class="st6" d="M512.3,403.9l74,139c-13.2,2.3-26.7,4.2-40,6-1-1.6-3.8-1.1-5.5-1-6.8.6-15.3,1.9-22.1,3s-4-1.1-3.4,2c-4.1.5-11.8.2-15.3,1s-.6,2-1.3,2c-3.3.4-10.4-1-14.7,0s-.6,1.9-1.3,2c-1.6.3-11.3-.4-15.3,0-1.9-1.7-6-1.2-8.5-1-9.3.7-18.7,2.3-28,3-13.2,1-26.5.4-39.5,3-2.8-38.9-4.6-80.2-7.2-119.5-.5-7.8-1.4-15.7-1.8-23.5,3-.2,5.2-.7,8-1,1.3,1.7,4.6,1.1,6.5,1,5.8-.5,11.8-2.3,17.5-3,30.1-3.8,60.3-7.1,90.5-11,1.9-.2,4.1,1.3,3.5-2,1.2-.2,2.8.2,4,0ZM460.3,434.9c0,1,0,2,0,3-1.7,1.6-1.2,5.3-1,7.5,1.2,14.8,3.4,36.3,6.2,50.7.7,3.7,1.4,8.8,5.7,9.8s2,0,3,0c5.9.4,13.4-.3,19.4-1.1s7.4-.2,6.6-2.9c.3,0,.7,0,1,0,1.5,1.4,3.6,1.2,5.5,1,4.7-.4,27-3.1,29.3-5.3,5.2-4.9-1.3-12.9-3.8-18.2s-1.3-3.9-2-1.5c-6.8-13.2-15.4-28.2-23-41,1.4-.4-.9-4.6-1.3-5.2-2.9-5.1-4.8-8.7-11.2-8.9s-27.4,3.2-31.5,4.6-5.8,4.5-3,7.5ZM430.3,460.9c5-6.5,9-10.6,3.8-19.3-4.4-7.4-11.5-7.2-18.8-5.7s-.9-1-3.5,1c-13.6,10.7-1,32.6,16.5,26.5,4-1.4,1.9-2.4,2-2.5Z"/>
    <path class="st0" d="M512.3,403.9c-1.2.2-2.8-.2-4,0-31.2,4.6-62.7,8.1-94,12s-16,2-24,3-5,.8-8,1-3.9,1.4-7.3.8c-10.1-1.9-12.1-18.3-1-20.6,36.2-4.6,72.4-8.9,108.6-13.4,12.4-1.5,40.8-11.9,39.7,8.6-.4,7-4,7.4-10.1,8.5Z"/>
    <path class="st2" d="M251.8,251c17.8-.5,37.3,5.9,52.5,14.9"/>
    <path class="st5" d="M459.3,639.9c.7,0,1.3,0,2,0,27.6-1.4,39.3,11.8,63,20.8,38.1,14.5,52.1-2.9,85-14.7,7.2-2.6,15.5-4.2,23-4.9,3.7,2,11.1,2.1,15,0,7,.7,16.5,3.2,23,6.1,25.1,11.4,31.5,23,62,17.2,11-2.1,20-8.7,30-12.3,19.1-6.7,36.1-6,55,.6,14.5,5.1,31,16.6,45.8,18.7,11.2,1.6,22.3-.9,33.5-.6,7.9,6.3-6,11.2-10.3,12.6-35.7,11.9-61.8-16.2-97.5-12.9-20.5,1.9-38.4,16.8-58.9,18.5-27.6,2.3-38.8-6.9-63-16-50.1-18.9-76.3,22.5-122.1,18.5-24.1-2.1-46.7-20-69.9-22.2-37.6-3.4-65.4,24.1-103.1,22.2-24.4-1.3-41.5-15.2-63.4-20.3-42.3-9.8-76.9,23.8-120.6,20.3-17.5-1.4-33.8-11.8-51.1-13.4-5-.5-20.4,2.4-22.5-.7-4.3-6.2,8-10.1,11.6-10.5,17.9-2.2,35.3,5.2,53,6.1,34.4,1.8,53.2-15.2,83.5-25.7,5.6-2,11.3-2.6,17-3.7,40.6-7.6,52.2,19,86.5,22.1,30.3,2.8,44-10.3,70.5-19.7,7.7-2.7,14.9-5.4,23-6.1Z"/>
    <path class="st3" d="M279.3,648.9l-16-27c137.6-2.5,275.2-15.3,410.2-41.3,42.5-8.2,84.6-18.4,126.8-27.7-12,33-29.9,63.7-50.6,91.9l-17.4,21.1c-30.5,4.8-36.9-4.7-62-14-.6-1.9-2.4-2-4-2.5-13.9-5.2-28.7-5.4-43.3-3.2l-13.8,4.7c-32.9,9.7-46.9,23.8-85,12,.5-2.6-1.3-2-2.7-2.7-18.1-8.2-36.4-16.1-56.8-16.3-1.9,0-4.1-.9-3.5,2-.7,0-1.3,0-2,0-5.5-2.2-14.7.4-20.2,2.3s-3.3.2-2.8,2.7c-26.5,7.6-40.2,18.3-70.5,16-34.3-2.6-45.8-24.2-86.5-18Z"/>
    <path class="st3" d="M823.3,482.9c-2,8.6-4.4,17.1-7,25.5s-7.3,24.3-10.1,25.9c-47.9,12.3-96.2,23.1-144.8,32.2-124.9,23.5-256.9,37.9-383.6,40.4-5.9.1-17.9.9-23,0s-1.6-.6-2.4-1.6c-1.4-1.7-6.8-13.8-7.1-15.9s.2-1.3,1.5-1.5c9.9-1.4,24.4.4,35.1,0,106-3.1,224.7-9.9,328.6-30.4,32.6-6.4,56.4-15.8,77.6-42.4,18.7-4.4,37.4-8.4,56.1-12.9,26.4-6.5,52.7-13.9,79.2-19.3Z"/>
    <path class="st0" d="M507.3,436.9c7.6,12.8,16.2,27.8,23,41,5.2,10.2,12.1,18-3.6,20.9s-17.2,2.1-25.4,3.1-.7,0-1,0c-8.6,1.1-17.5,1.9-26,4-1,0-2.2.2-3,0l-3.8-5.7c-1.1-20.6-6.3-41.8-7.2-62.3,0-1,0-2,0-3s-.6-4.3.6-5.1l35.8-5.9c5.1.5,8.2,8.9,10.6,13Z"/>
    <path class="st0" d="M430.3,460.9c-18.3,8.9-32.6-13.7-15-25,7.3-1.5,14.5-1.8,18.8,5.7,5.1,8.7,1.1,12.8-3.8,19.3Z"/>
    <path class="st2" d="M259.2,131.4c.3,0,.7,0,1,0,1,0,2,0,3,0s.7,0,1,0c1.3,0,2.7,0,4,0s2,0,3,0c16.7,1,29.2,4.3,44.4,11.1,8.4,3.8,35.8,19.1,39.4,26.6s-1.9,18-10.7,14.7-16.5-12.3-22.4-15.6c-58.8-33.4-125.1-9.8-157.2,47.2-6.1,5.1-14.6,0-14.6-7.5s10.9-20.7,15.1-26c22.9-28.6,57-48.5,94-50.5Z"/>
    <path class="st2" d="M263,191.6c17.8-.5,37.3,5.9,52.5,14.9s15.7,10.2,16.9,13.1c2.4,5.4-.8,13.3-6.7,13.8-5.3.5-14.6-8.3-19.8-11.3-34.1-19.6-72.2-12.9-98.2,16.2-4.6,5.2-9.7,17.4-17.7,15.8-21.5-4.2,8-33,14.7-38.8,15.4-13.3,37.8-23.1,58.3-23.7Z"/>
    <path class="st2" d="M258,248.7c14-1.6,34.5,2.1,44.2,13.2s.3,16-6.4,15.5-16.6-9.3-23.5-10.5-15.1,0-22,5.1-17,22.6-26.1,10.9-1.5-9.4,2-14c7.7-10,18.9-18.8,31.8-20.2Z"/>
  </g>
</svg>